HIERARCHY
ROOT Hips
{
	OFFSET 0.000000 0.000000 0.000000
	CHANNELS 6 Xposition Yposition Zposition Xrotation Yrotation Zrotation
	JOINT LeftUpLeg
	{
		OFFSET 3.317160 0.000000 0.000000
		CHANNELS 6 Xposition Yposition Zposition Xrotation Yrotation Zrotation
		JOINT LeftLeg
		{
			OFFSET 0.000000 -16.621309 0.000000
			CHANNELS 6 Xposition Yposition Zposition Xrotation Yrotation Zrotation
			JOINT LeftFoot
			{
				OFFSET 0.000000 -16.132090 0.000000
				CHANNELS 6 Xposition Yposition Zposition Xrotation Yrotation Zrotation
				JOINT LeftToeBase
				{
					OFFSET 0.000000 -1.705429 6.364750
					CHANNELS 6 Xposition Yposition Zposition Xrotation Yrotation Zrotation
					End Site
					{
						OFFSET 0.000000 0.000000 2.952750
					}
				}
			}
		}
	}
	JOINT RightUpLeg
	{
		OFFSET -3.317160 0.000000 0.000000
		CHANNELS 6 Xposition Yposition Zposition Xrotation Yrotation Zrotation
		JOINT RightLeg
		{
			OFFSET 0.000000 -16.621309 0.000000
			CHANNELS 6 Xposition Yposition Zposition Xrotation Yrotation Zrotation
			JOINT RightFoot
			{
				OFFSET 0.000000 -16.132090 0.000000
				CHANNELS 6 Xposition Yposition Zposition Xrotation Yrotation Zrotation
				JOINT RightToeBase
				{
					OFFSET 0.000000 -1.705429 6.364750
					CHANNELS 6 Xposition Yposition Zposition Xrotation Yrotation Zrotation
					End Site
					{
						OFFSET 0.000000 0.000000 2.952750
					}
				}
			}
		}
	}
	JOINT Spine
	{
		OFFSET 0.000000 0.039370 0.000000
		CHANNELS 6 Xposition Yposition Zposition Xrotation Yrotation Zrotation
		JOINT Spine1
		{
			OFFSET 0.000000 9.216790 0.000000
			CHANNELS 6 Xposition Yposition Zposition Xrotation Yrotation Zrotation
			JOINT Neck
			{
				OFFSET 0.000000 8.819270 0.000000
				CHANNELS 3 Xrotation Yrotation Zrotation
				JOINT Head
				{
					OFFSET 0.000000 6.846361 0.000000
					CHANNELS 6 Xposition Yposition Zposition Xrotation Yrotation Zrotation
					End Site
					{
						OFFSET 0.000000 4.527550 0.000000
					}
				}
			}
			JOINT LeftShoulder
			{
				OFFSET 0.000000 8.819270 0.000000
				CHANNELS 3 Xrotation Yrotation Zrotation
				JOINT LeftArm
				{
					OFFSET 7.313730 -0.000031 0.000000
					CHANNELS 6 Xposition Yposition Zposition Xrotation Yrotation Zrotation
					JOINT LeftForeArm
					{
						OFFSET 10.822620 -0.000040 0.000000
						CHANNELS 6 Xposition Yposition Zposition Xrotation Yrotation Zrotation
						JOINT LeftHand
						{
							OFFSET 10.147810 -0.000040 0.000000
							CHANNELS 6 Xposition Yposition Zposition Xrotation Yrotation Zrotation
							JOINT LeftHandThumb
							{
								OFFSET 0.000000 0.000000 0.000000
								CHANNELS 6 Xposition Yposition Zposition Xrotation Yrotation Zrotation
								End Site
								{
									OFFSET 0.000000 0.000000 3.937000
								}
							}
							JOINT L_Wrist_End
							{
								OFFSET 3.937000 -0.000010 0.000000
								CHANNELS 6 Xposition Yposition Zposition Xrotation Yrotation Zrotation
								End Site
								{
									OFFSET 0.000000 0.100000 0.000000
								}
							}
						}
					}
				}
			}
			JOINT RightShoulder
			{
				OFFSET 0.000000 8.819270 0.000000
				CHANNELS 3 Xrotation Yrotation Zrotation
				JOINT RightArm
				{
					OFFSET -7.313730 -0.000031 0.000000
					CHANNELS 6 Xposition Yposition Zposition Xrotation Yrotation Zrotation
					JOINT RightForeArm
					{
						OFFSET -10.822620 -0.000040 0.000000
						CHANNELS 6 Xposition Yposition Zposition Xrotation Yrotation Zrotation
						JOINT RightHand
						{
							OFFSET -10.147810 -0.000040 0.000000
							CHANNELS 6 Xposition Yposition Zposition Xrotation Yrotation Zrotation
							JOINT RightHandThumb
							{
								OFFSET 0.000000 0.000000 0.000000
								CHANNELS 6 Xposition Yposition Zposition Xrotation Yrotation Zrotation
								End Site
								{
									OFFSET 0.000000 0.000000 3.937000
								}
							}
							JOINT R_Wrist_End
							{
								OFFSET -5.393688 -0.000019 0.000000
								CHANNELS 6 Xposition Yposition Zposition Xrotation Yrotation Zrotation
								End Site
								{
									OFFSET 0.000000 0.100000 0.000000
								}
							}
						}
					}
				}
			}
		}
	}
}
MOTION
Frames: 4
Frame Time: 0.041667
0.024905 34.167225 -0.007651 -6.369906 2.483904 -2.692431 3.317161 0.000024 0.000001 3.021075 10.089794 15.767225 -0.000002 -16.621330 0.000001 8.753554 11.808490 -4.221475 0.000096 -16.132061 -0.000022 -3.743946 -4.006343 -9.411601 0.000002 -1.705429 6.364749 -0.000002 -0.000001 0.000000 -3.317158 0.000012 0.000001 6.363855 -7.224889 0.246795 -0.000002 -16.621305 -0.000002 8.219841 -4.894693 5.361637 -0.000142 -16.132086 -0.000034 -7.504336 0.054246 -2.276577 -0.000001 -1.705430 6.364755 -0.277534 0.443084 -0.082011 0.000000 0.039371 0.000000 -0.000001 -0.000000 -0.000000 0.205077 9.238420 -0.056443 11.912046 -4.428659 4.915979 -2.382729 0.852672 1.856149 -0.000000 6.846365 -0.000003 -2.498570 0.782003 1.800539 0.403468 -9.341575 -11.826703 7.313731 -0.000025 -0.000001 -6.729904 10.726192 -68.552887 10.822617 -0.000039 0.000001 21.925213 -14.939248 4.458040 10.147812 -0.000044 0.000000 -0.000004 0.000002 -0.000000 -0.000003 0.000003 0.000000 -0.000001 0.000001 -0.000002 3.937001 -0.000008 0.000002 -0.000001 -0.000000 -0.000000 0.439076 6.771730 15.203866 -7.313738 -0.000031 -0.000001 -5.661821 -1.532232 59.647701 -10.822616 -0.000031 0.000000 17.172296 16.474408 -1.759420 -10.147810 -0.000042 0.000000 -0.000001 0.000001 -0.000000 -0.000004 0.000000 -0.000000 -0.000002 0.000000 0.000001 -5.393692 -0.000019 -0.000000 -0.000001 0.000000 -0.000001 
0.024949 34.167175 -0.007868 -6.369796 2.483910 -2.692725 3.317154 0.000014 -0.000001 3.017359 10.088479 15.768014 -0.000006 -16.621305 -0.000001 8.760319 11.808606 -4.221481 0.000098 -16.132069 -0.000017 -3.746795 -4.006276 -9.412109 -0.000000 -1.705429 6.364749 -0.000001 0.000002 0.000000 -3.317153 0.000004 -0.000001 6.362975 -7.224832 0.246933 -0.000001 -16.621292 -0.000003 8.220653 -4.894532 5.361643 -0.000147 -16.132095 -0.000031 -7.504468 0.054058 -2.276577 0.000001 -1.705432 6.364753 -0.277661 0.443028 -0.081995 -0.000000 0.039367 -0.000000 -0.000006 0.000000 -0.000000 0.205073 9.238418 -0.056443 11.912075 -4.428651 4.916176 -2.382376 0.852692 1.856051 -0.000001 6.846369 -0.000001 -2.497898 0.782009 1.800723 0.405696 -9.337260 -11.821268 7.313721 -0.000014 -0.000001 -6.729951 10.721957 -68.558987 10.822614 -0.000037 -0.000004 21.926379 -14.938906 4.457804 10.147810 -0.000042 -0.000000 -0.000002 0.000000 0.000000 0.000002 -0.000000 0.000001 0.000000 0.000002 -0.000002 3.937004 -0.000008 0.000002 -0.000001 0.000001 -0.000001 0.440711 6.769704 15.199181 -7.313742 -0.000011 -0.000003 -5.662796 -1.530467 59.650795 -10.822632 -0.000010 -0.000002 17.172127 16.476371 -1.757941 -10.147810 -0.000039 -0.000000 0.000001 -0.000002 0.000000 -0.000006 0.000002 0.000000 -0.000003 -0.000000 0.000001 -5.393692 -0.000017 0.000000 -0.000003 -0.000001 -0.000001 
0.026223 34.165852 -0.013278 -6.369370 2.484742 -2.700369 3.317160 0.000013 -0.000000 2.953718 10.062441 15.782744 0.000002 -16.621304 -0.000001 8.872876 11.812215 -4.221877 0.000098 -16.132046 -0.000022 -3.793464 -4.004442 -9.418681 0.000001 -1.705429 6.364750 -0.000000 0.000000 -0.000000 -3.317158 0.000009 0.000001 6.322406 -7.225167 0.248151 -0.000001 -16.621317 -0.000001 8.282625 -4.889682 5.361292 -0.000145 -16.132065 -0.000021 -7.525472 0.051083 -2.273663 -0.000000 -1.705435 6.364750 -0.277700 0.442973 -0.081992 0.000001 0.039362 0.000001 0.000031 0.000001 -0.000000 0.204938 9.238463 -0.056432 11.912435 -4.428191 4.921662 -2.382311 0.852655 1.855861 -0.000001 6.846365 -0.000004 -2.490304 0.781955 1.802357 0.409276 -9.334851 -11.810364 7.313730 -0.000010 -0.000002 -6.727873 10.715005 -68.578911 10.822613 -0.000044 -0.000001 21.954625 -14.923951 4.452570 10.147812 -0.000042 -0.000000 -0.000004 -0.000001 0.000000 0.000002 0.000003 -0.000002 -0.000001 0.000003 -0.000001 3.937005 -0.000007 -0.000001 0.000001 0.000003 -0.000003 0.440719 6.769688 15.199148 -7.313736 -0.000001 -0.000000 -5.659864 -1.537229 59.614786 -10.822636 -0.000018 0.000000 17.168626 16.531971 -1.723466 -10.147806 -0.000041 -0.000000 -0.000003 0.000001 -0.000001 0.000004 0.000002 0.000001 -0.000001 0.000001 0.000000 -5.393685 -0.000019 0.000001 0.000001 -0.000002 0.000001 
0.027451 34.163921 -0.019126 -6.368703 2.485871 -2.710391 3.317158 0.000010 -0.000000 2.860818 10.056697 15.807469 -0.000001 -16.621317 -0.000000 9.026800 11.781182 -4.222148 0.000093 -16.132090 -0.000023 -3.860762 -3.996794 -9.427274 -0.000000 -1.705429 6.364750 0.000002 -0.000003 0.000000 -3.317157 -0.000005 -0.000001 6.270552 -7.225818 0.250596 -0.000001 -16.621286 0.000000 8.365766 -4.883515 5.360862 -0.000143 -16.132061 -0.000024 -7.556173 0.047772 -2.270120 0.000001 -1.705428 6.364753 -0.277612 0.443040 -0.082012 0.000000 0.039364 0.000002 -0.000000 0.000000 0.000000 0.204765 9.238488 -0.056437 11.912776 -4.427562 4.928898 -2.382620 0.852680 1.855982 -0.000001 6.846355 -0.000001 -2.484842 0.782308 1.801153 0.402861 -9.353855 -11.819308 7.313739 -0.000020 -0.000003 -6.720562 10.725337 -68.577517 10.822625 -0.000040 -0.000002 21.985220 -14.907351 4.446516 10.147806 -0.000040 0.000000 -0.000003 -0.000001 0.000001 0.000006 0.000002 -0.000000 0.000002 0.000003 -0.000002 3.937004 -0.000008 0.000001 -0.000000 0.000002 -0.000001 0.439069 6.771780 15.203834 -7.313730 -0.000001 0.000002 -5.647979 -1.563398 59.557282 -10.822632 -0.000020 0.000001 17.164197 16.616785 -1.676844 -10.147810 -0.000039 0.000000 -0.000001 0.000001 -0.000001 0.000001 0.000000 0.000000 -0.000002 0.000003 0.000002 -5.393692 -0.000014 -0.000000 0.000000 -0.000001 0.000001 
